# xmcd CD database file
# Generated: Tue Jul 23 16:31:30 2002 by KSCD
# 
# Track frame offsets:
#       150
#       10365
#       23145
#       35925
#       48347
#       59297
#       69075
#       81955
#       94745
#       105875
#       114747
#       126200
#       135962
#       143655
#       155505
#       169270
#       177702
#       192800
#       204467
#       215565
#
# Disc length: 3051 seconds
#
# Revision: 1
# Processed by: cddbd v1.4PL0 Copyright (c) Steve Scherf et al.
# Submitted via: Kscd 1.3.2
#
DISCID=180be914
DTITLE=Carl Perkins - The Masters
DYEAR=1900
DGENRE=
TTITLE0=Blue Suede Shoes
TTITLE1=Honey Don't
TTITLE2=Boppin' the Blues
TTITLE3=Your True Love
TTITLE4=Dixie Fried
TTITLE5=Matchbox
TTITLE6=Roll Over Beethoven
TTITLE7=Put Your Cat Clothes On
TTITLE8=Pink Pedal Pushers
TTITLE9=Lend Me Your Comb
TTITLE10=Sure to Fall
TTITLE11=Movie Magg
TTITLE12=Glad All Over
TTITLE13=Gone, Gone, Gone
TTITLE14=Tennessee
TTITLE15=Honky Tonk Gal
TTITLE16=Only You (and you alone)
TTITLE17=The Right String Baby but the Wrong Yo-Yo
TTITLE18=I'm Sorry I'm not Sorry
TTITLE19=Turn Around
EXTD=
EXTT0=
EXTT1=
EXTT2=
EXTT3=
EXTT4=
EXTT5=
EXTT6=
EXTT7=
EXTT8=
EXTT9=
EXTT10=
EXTT11=
EXTT12=
EXTT13=
EXTT14=
EXTT15=
EXTT16=
EXTT17=
EXTT18=
EXTT19=
PLAYORDER=
